<?xml version="1.0" encoding="iso-8859-1"?>
<!-- Generator: Adobe Illustrator 19.0.0, SVG Export Plug-In . SVG Version: 6.00 Build 0)  -->
<svg version="1.1" id="Layer_1" xmlns="http://www.w3.org/2000/svg" xmlns:xlink="http://www.w3.org/1999/xlink" x="0px" y="0px"
	 viewBox="0 0 512 512" style="enable-background:new 0 0 512 512;" xml:space="preserve">
<circle style="fill:#366796;" cx="256" cy="256" r="256"/>
<path style="fill:#263A7A;" d="M512,256c0-3.598-0.093-7.173-0.24-10.735l-99.507-99.507l-308.395,224.02l142.005,142.005
	c3.365,0.131,6.74,0.217,10.137,0.217C397.384,512,512,397.384,512,256z"/>
<path style="fill:#E03A00;" d="M394.2,374.088H117.801c-13.648,0-24.71-11.062-24.71-24.709V162.623
	c0-13.648,11.062-24.71,24.71-24.71H394.2c13.646,0,24.709,11.062,24.709,24.71v186.756
	C418.909,363.025,407.847,374.088,394.2,374.088z"/>
<path style="fill:#940030;" d="M394.2,137.912H255.426v236.175H394.2c13.646,0,24.709-11.062,24.709-24.709V162.621
	C418.909,148.975,407.847,137.912,394.2,137.912z"/>
<g>
	<path style="fill:#FFEDB5;" d="M167.234,234.534c-0.279-0.276-1.041-0.798-2.293-1.562s-2.813-1.564-4.689-2.398
		c-1.877-0.833-3.925-1.562-6.147-2.189c-2.224-0.624-4.448-0.938-6.67-0.938c-2.917,0-5.158,0.522-6.72,1.564
		c-1.562,1.041-2.345,2.57-2.345,4.584c0,1.252,0.346,2.293,1.041,3.125c0.693,0.833,1.684,1.581,2.97,2.241
		c1.284,0.66,2.882,1.267,4.794,1.824c1.908,0.557,4.115,1.183,6.616,1.876c3.543,0.972,6.737,2.032,9.587,3.179
		c2.85,1.146,5.28,2.57,7.294,4.274c2.014,1.703,3.558,3.768,4.637,6.199c1.076,2.432,1.615,5.351,1.615,8.754
		c0,4.168-0.781,7.694-2.345,10.576c-1.562,2.884-3.629,5.21-6.201,6.982c-2.572,1.772-5.541,3.056-8.909,3.855
		c-3.37,0.798-6.825,1.198-10.368,1.198c-2.71,0-5.472-0.209-8.285-0.624c-2.813-0.417-5.575-1.026-8.285-1.824
		s-5.351-1.755-7.92-2.867c-2.57-1.11-4.932-2.396-7.085-3.855l7.504-14.901c0.347,0.348,1.284,1.009,2.813,1.979
		c1.527,0.974,3.403,1.946,5.627,2.917c2.222,0.974,4.723,1.841,7.504,2.607c2.777,0.764,5.591,1.146,8.44,1.146
		c6.044,0,9.066-1.839,9.066-5.523c0-1.389-0.453-2.536-1.353-3.439c-0.903-0.9-2.155-1.719-3.753-2.448
		c-1.598-0.729-3.474-1.407-5.627-2.033c-2.153-0.626-4.517-1.319-7.085-2.084c-3.405-1.041-6.358-2.17-8.857-3.387
		c-2.501-1.214-4.586-2.622-6.253-4.218c-1.667-1.596-2.901-3.439-3.7-5.523c-0.8-2.084-1.198-4.515-1.198-7.294
		c0-3.889,0.729-7.328,2.189-10.314c1.458-2.986,3.437-5.504,5.939-7.556c2.5-2.048,5.401-3.594,8.701-4.636
		s6.789-1.564,10.473-1.564c2.639,0,5.21,0.245,7.711,0.731c2.501,0.486,4.88,1.112,7.139,1.876
		c2.257,0.764,4.393,1.633,6.409,2.605c2.014,0.972,3.82,1.946,5.418,2.917L167.234,234.534z"/>
	<path style="fill:#FFEDB5;" d="M217.979,287.468c-5.28,0-10.075-1.076-14.381-3.229c-4.308-2.153-8.008-4.986-11.099-8.494
		c-3.091-3.506-5.489-7.518-7.189-12.035c-1.703-4.515-2.553-9.169-2.553-13.964c0-4.861,0.886-9.55,2.657-14.067
		c1.772-4.515,4.237-8.494,7.399-11.931c3.16-3.439,6.913-6.182,11.254-8.232c4.341-2.048,9.083-3.074,14.224-3.074
		c5.279,0,10.071,1.077,14.379,3.231c4.306,2.153,8.008,5.001,11.099,8.544c3.091,3.544,5.472,7.575,7.139,12.088
		c1.669,4.517,2.501,9.102,2.501,13.755c0,4.861-0.886,9.552-2.658,14.067c-1.77,4.515-4.218,8.492-7.346,11.931
		c-3.125,3.437-6.861,6.201-11.202,8.283C227.861,286.425,223.12,287.468,217.979,287.468z M200.161,249.956
		c0,2.848,0.398,5.61,1.198,8.283c0.796,2.676,1.943,5.055,3.437,7.139c1.493,2.084,3.369,3.753,5.629,5.001
		c2.257,1.252,4.846,1.877,7.763,1.877c2.986,0,5.591-0.66,7.814-1.979c2.222-1.321,4.08-3.039,5.573-5.158s2.607-4.515,3.336-7.19
		c0.729-2.674,1.095-5.401,1.095-8.18c0-2.848-0.4-5.61-1.198-8.285c-0.8-2.674-1.964-5.036-3.489-7.085
		c-1.529-2.048-3.406-3.681-5.629-4.898c-2.224-1.214-4.76-1.824-7.606-1.824c-2.988,0-5.592,0.643-7.814,1.927
		c-2.224,1.286-4.082,2.97-5.575,5.055c-1.495,2.084-2.622,4.465-3.386,7.139C200.542,244.452,200.161,247.179,200.161,249.956z"/>
</g>
<g>
	<path style="fill:#FEE187;" d="M263.411,286.844v-73.983H280.5v58.978h35.845v15.005H263.411z"/>
	<path style="fill:#FEE187;" d="M324.784,286.844v-73.983h27.614c6.113,0,11.462,0.972,16.048,2.917
		c4.586,1.946,8.423,4.584,11.516,7.92c3.091,3.336,5.42,7.242,6.982,11.723c1.562,4.482,2.345,9.257,2.345,14.329
		c0,5.627-0.871,10.718-2.607,15.265c-1.738,4.551-4.22,8.44-7.449,11.671c-3.231,3.231-7.123,5.73-11.673,7.504
		c-4.551,1.77-9.604,2.657-15.162,2.657h-27.614V286.844z M371.884,249.747c0-3.265-0.434-6.234-1.303-8.909
		c-0.869-2.674-2.136-4.986-3.803-6.93c-1.667-1.945-3.717-3.439-6.147-4.482c-2.432-1.041-5.175-1.562-8.232-1.562h-10.523v43.973
		h10.523c3.125,0,5.904-0.555,8.337-1.667c2.431-1.112,4.463-2.658,6.096-4.637c1.631-1.979,2.882-4.306,3.751-6.982
		C371.45,255.879,371.884,252.944,371.884,249.747z"/>
</g>
<g>
</g>
<g>
</g>
<g>
</g>
<g>
</g>
<g>
</g>
<g>
</g>
<g>
</g>
<g>
</g>
<g>
</g>
<g>
</g>
<g>
</g>
<g>
</g>
<g>
</g>
<g>
</g>
<g>
</g>
</svg>
